# 3ds Max Wavefront OBJ Exporter v0.99 - (c)2007 guruware
# File Created: 13.02.2022 18:24:50

mtllib Bullet Crystal.mtl

#
# object Cylinder003
#

v  3.0455 0.0000 0.0000
v  0.9411 0.0000 -2.8964
v  1.2853 13.2845 -3.9557
v  4.1593 13.2845 0.0000
v  -2.4638 -0.0000 -1.7901
v  -3.3650 13.2845 -2.4448
v  -2.4638 -0.0000 1.7901
v  -3.3650 13.2845 2.4448
v  0.9411 0.0000 2.8964
v  1.2853 13.2845 3.9557
v  -0.0000 18.1504 0.0000
v  0.0000 -3.0357 -0.0000
# 12 vertices

vn 0.9022 -0.4313 -0.0000
vn 0.2788 -0.4313 -0.8580
vn 0.2941 0.3068 -0.9052
vn 0.9518 0.3068 0.0000
vn -0.7299 -0.4313 -0.5303
vn -0.7700 0.3068 -0.5594
vn -0.7299 -0.4313 0.5303
vn -0.7700 0.3068 0.5594
vn 0.2788 -0.4313 0.8580
vn 0.2941 0.3068 0.9052
vn -0.0000 1.0000 0.0000
vn 0.0000 -1.0000 -0.0000
# 12 vertex normals

vt 0.7500 0.8000 1.0000
vt 0.9500 0.0000 1.0000
vt 0.9500 1.0000 1.0000
vt 0.7500 1.0000 1.0000
vt -0.0500 0.8000 1.0000
vt 0.1500 0.0000 1.0000
vt 0.1500 1.0000 1.0000
vt -0.0500 1.0000 1.0000
vt 0.3500 0.0000 1.0000
vt 0.3500 1.0000 1.0000
vt 0.5500 0.0000 1.0000
vt 0.5500 1.0000 1.0000
vt 0.4500 1.0000 1.0000
vt 0.4500 0.0000 1.0000
vt -0.0500 0.0000 1.0000
# 15 texture coords

o Cylinder003
g Cylinder003
usemtl wire_085028177
s 8
f 1/1/1 2/2/2 3/3/3 4/4/4 
f 2/5/2 5/6/5 6/7/6 3/8/3 
f 5/6/5 7/9/7 8/10/8 6/7/6 
f 7/9/7 9/11/9 10/12/10 8/10/8 
f 9/11/9 1/1/1 4/4/4 10/12/10 
s off
f 4/4/4 3/3/3 11/13/11 
f 3/8/3 6/7/6 11/13/11 
f 6/7/6 8/10/8 11/13/11 
f 8/10/8 10/12/10 11/13/11 
f 10/12/10 4/4/4 11/13/11 
f 2/2/2 1/1/1 12/14/12 
f 5/6/5 2/15/2 12/14/12 
f 7/9/7 5/6/5 12/14/12 
f 9/11/9 7/9/7 12/14/12 
f 1/1/1 9/11/9 12/14/12 
# 5 polygons - 10 triangles

